<?xml version="1.0" encoding="UTF-8" standalone="no"?>
<svg
   width="130"
   height="56"
   viewBox="0 0 130 56"
   fill="none"
   version="1.1"
   id="svg14"
   sodipodi:docname="slsoft_logo.svg"
   inkscape:version="1.4 (1:1.4+202410161351+e7c3feb100)"
   xmlns:inkscape="http://www.inkscape.org/namespaces/inkscape"
   xmlns:sodipodi="http://sodipodi.sourceforge.net/DTD/sodipodi-0.dtd"
   xmlns="http://www.w3.org/2000/svg"
   xmlns:svg="http://www.w3.org/2000/svg">
  <sodipodi:namedview
     id="namedview14"
     pagecolor="#ffffff"
     bordercolor="#000000"
     borderopacity="0.25"
     inkscape:showpageshadow="2"
     inkscape:pageopacity="0.0"
     inkscape:pagecheckerboard="0"
     inkscape:deskcolor="#d1d1d1"
     inkscape:zoom="1.6136364"
     inkscape:cx="32.84507"
     inkscape:cy="63.211268"
     inkscape:window-width="1920"
     inkscape:window-height="982"
     inkscape:window-x="0"
     inkscape:window-y="20"
     inkscape:window-maximized="1"
     inkscape:current-layer="svg14" />
  <g
     clip-path="url(#clip0_42_2309)"
     id="g14">
    <path
       d="m 12.8866,19.0266 v 24.3537 c 0,0.324 -0.2591,0.5831 -0.5831,0.5831 -0.1512,0 -0.2879,-0.0575 -0.3887,-0.1511 l -0.036,-0.036 -8.9194,-8.9194 C 2.87302,34.7705 2.78663,34.6769 2.70744,34.5833 2.10274,33.8635 1.7428,32.9276 1.7428,31.9126 c 0,-1.1519 0.46792,-2.1957 1.2238,-2.9444 l 9.9344,-9.9344 h -0.0144 z"
       fill="#a6a8ab"
       id="path1" />
    <path
       d="M 17.2053,2.58494 V 12.8433 c 0,1.2454 -0.504,2.3684 -1.3174,3.1819 L 2.95153,28.9616 c -0.75588,0.7558 -1.2238,1.7925 -1.2238,2.9443 0,1.015 0.35994,1.9437 0.96464,2.6708 C 2.56279,34.4615 2.44041,34.3463 2.31803,34.2239 1.52616,33.432 0.899857,32.4746 0.50392,31.402 0.179971,30.5381 0,29.6023 0,28.6232 V 20.2509 C 0,19.0055 0.50392,17.8825 1.31739,17.069 L 16.2118,2.189 c 0,0 0.0144,-0.02159 0.0288,-0.02879 0.1008,-0.09359 0.2376,-0.15118 0.3888,-0.15118 0.3167,0 0.5759,0.25916 0.5759,0.57591 z"
       fill="#a30c33"
       id="path2" />
    <path
       d="M 22.0365,36.7286 V 12.3749 c 0,-0.324 0.2592,-0.5832 0.5831,-0.5832 0.1512,0 0.288,0.0576 0.3887,0.1512 0.0144,0.0144 0.0288,0.0288 0.036,0.036 l 8.9194,8.9194 c 0.0864,0.0864 0.1728,0.18 0.252,0.2736 0.6047,0.7198 0.9646,1.6557 0.9646,2.6707 0,1.1518 -0.4679,2.1957 -1.2238,2.9444 l -9.9344,9.9344 h 0.0144 z"
       fill="#a6a8ab"
       id="path3" />
    <path
       d="M 17.7102,53.1714 V 42.913 c 0,-1.2454 0.5039,-2.3684 1.3174,-3.1819 L 31.9639,26.7948 c 0.7559,-0.7559 1.2238,-1.7925 1.2238,-2.9443 0,-1.0151 -0.3599,-1.9437 -0.9646,-2.6708 0.1296,0.1152 0.252,0.2304 0.3743,0.3527 0.7919,0.7919 1.4182,1.7494 1.8142,2.822 0.3239,0.8638 0.5039,1.7997 0.5039,2.7787 v 8.3723 c 0,1.2454 -0.5039,2.3684 -1.3174,3.1819 L 18.7108,53.5746 c 0,0 -0.0144,0.0215 -0.0287,0.0287 -0.1008,0.0936 -0.2376,0.1512 -0.3888,0.1512 -0.3167,0 -0.5759,-0.2591 -0.5759,-0.5759 z"
       fill="#a30c33"
       id="path4" />
    <path
       d="m 48.974,29.9683 3.6282,-0.2304 c 0.0792,0.5903 0.2376,1.0367 0.4823,1.3462 0.396,0.4967 0.9503,0.7487 1.6846,0.7487 0.5471,0 0.9646,-0.1296 1.2598,-0.3815 0.2951,-0.252 0.4391,-0.5544 0.4391,-0.8855 0,-0.3311 -0.1368,-0.6047 -0.4175,-0.8567 -0.2808,-0.2519 -0.9287,-0.4895 -1.9509,-0.7126 -1.6701,-0.3744 -2.8652,-0.8783 -3.5778,-1.4974 -0.7199,-0.6191 -1.0799,-1.4182 -1.0799,-2.3828 0,-0.6335 0.1872,-1.231 0.5543,-1.7997 0.3672,-0.5688 0.9215,-1.0079 1.6558,-1.3318 0.7343,-0.324 1.7493,-0.4824 3.0307,-0.4824 1.5765,0 2.7788,0.2952 3.6066,0.8783 0.8279,0.5831 1.3174,1.519 1.4758,2.8004 l -3.5922,0.2087 c -0.0936,-0.5543 -0.2952,-0.9574 -0.6047,-1.2094 -0.3096,-0.2519 -0.7271,-0.3815 -1.267,-0.3815 -0.4464,0 -0.7775,0.0936 -1.0007,0.2807 -0.2232,0.1872 -0.3383,0.4176 -0.3383,0.6839 0,0.1944 0.0936,0.3744 0.2807,0.5327 0.18,0.1656 0.6047,0.3168 1.2814,0.4536 1.663,0.3599 2.858,0.7199 3.5778,1.087 0.7199,0.3671 1.2455,0.8207 1.5766,1.3678 0.3311,0.5471 0.4895,1.1518 0.4895,1.8285 0,0.7919 -0.2159,1.5189 -0.6551,2.1884 -0.4391,0.6695 -1.051,1.1735 -1.8357,1.519 -0.7847,0.3455 -1.7781,0.5183 -2.9731,0.5183 -2.0949,0 -3.549,-0.4031 -4.3553,-1.2094 -0.8063,-0.8063 -1.267,-1.8357 -1.3678,-3.0811 z"
       fill="#a30c33"
       id="path5" />
    <path
       d="m 62.083,21.7122 h 3.8082 v 9.2937 h 5.9463 v 3.0379 H 62.0758 V 21.7122 Z"
       fill="#a30c33"
       id="path6" />
    <path
       d="m 78.6545,29.9685 3.6283,-0.2303 c 0.0792,0.5903 0.2375,1.0366 0.4823,1.3462 0.3959,0.4967 0.9502,0.7486 1.6845,0.7486 0.5471,0 0.9647,-0.1295 1.2598,-0.3815 0.2952,-0.252 0.4391,-0.5543 0.4391,-0.8855 0,-0.3311 -0.1367,-0.6047 -0.4175,-0.8566 -0.2807,-0.252 -0.9286,-0.4895 -1.9509,-0.7127 -1.6701,-0.3743 -2.8651,-0.8783 -3.5778,-1.4974 -0.7199,-0.6191 -1.0798,-1.4181 -1.0798,-2.3828 0,-0.6335 0.1871,-1.231 0.5543,-1.7997 0.3671,-0.5615 0.9214,-1.0078 1.6557,-1.3318 0.7343,-0.3239 1.7493,-0.4823 3.0307,-0.4823 1.5766,0 2.7788,0.2951 3.6067,0.8782 0.8278,0.5832 1.3174,1.519 1.4757,2.8004 l -3.5922,0.2088 c -0.0936,-0.5543 -0.2952,-0.9575 -0.6047,-1.2094 -0.3096,-0.252 -0.7271,-0.3816 -1.267,-0.3816 -0.4463,0 -0.7775,0.0936 -1.0006,0.2808 -0.2232,0.1871 -0.3384,0.4175 -0.3384,0.6839 0,0.1943 0.0936,0.3743 0.2808,0.5327 0.1799,0.1656 0.6047,0.3167 1.2814,0.4535 1.6629,0.36 2.8579,0.7199 3.5778,1.087 0.7199,0.3672 1.2454,0.8207 1.5765,1.3678 0.3312,0.5471 0.4896,1.1518 0.4896,1.8285 0,0.7919 -0.216,1.519 -0.6551,2.1885 -0.4392,0.6695 -1.0511,1.1734 -1.8357,1.5189 -0.7847,0.3456 -1.7782,0.5184 -2.9732,0.5184 -2.0948,0 -3.549,-0.4032 -4.3553,-1.2095 -0.8063,-0.8062 -1.267,-1.8357 -1.3678,-3.0811 z"
       fill="#a6a8ab"
       id="path7" />
    <path
       d="m 91.2825,27.8881 c 0,-2.0157 0.5615,-3.5779 1.6845,-4.7009 1.123,-1.123 2.6852,-1.6845 4.6865,-1.6845 2.0012,0 3.6355,0.5543 4.7445,1.6557 1.108,1.1014 1.662,2.6492 1.662,4.6289 0,1.4398 -0.244,2.6204 -0.727,3.549 -0.482,0.9215 -1.187,1.6414 -2.102,2.1525 -0.914,0.5111 -2.0586,0.7703 -3.4264,0.7703 -1.3677,0 -2.5412,-0.2232 -3.4554,-0.6623 -0.9143,-0.4464 -1.6486,-1.1447 -2.2173,-2.1021 -0.5687,-0.9575 -0.8494,-2.1597 -0.8494,-3.5994 z m 3.8082,0.0072 c 0,1.2454 0.2303,2.138 0.6911,2.6851 0.4607,0.5472 1.0942,0.8135 1.8861,0.8135 0.7918,0 1.4541,-0.2663 1.9005,-0.7991 0.4466,-0.5327 0.6696,-1.4901 0.6696,-2.8651 0,-1.159 -0.238,-2.0085 -0.7056,-2.5484 -0.468,-0.5327 -1.1015,-0.8063 -1.9077,-0.8063 -0.8063,0 -1.3822,0.2736 -1.8502,0.8135 -0.4679,0.5471 -0.6982,1.447 -0.6982,2.6996 h 0.0144 z"
       fill="#a6a8ab"
       id="path8" />
    <path
       d="m 106.133,21.7122 h 9.423 v 2.6491 h -5.593 v 2.1525 h 4.78 v 2.4908 h -4.78 v 5.0392 h -3.83 z"
       fill="#a6a8ab"
       id="path9" />
    <path
       d="m 116.736,21.7122 h 11.583 v 3.0451 h -3.887 v 9.2865 h -3.808 v -9.2865 h -3.888 z"
       fill="#a6a8ab"
       id="path10" />
  </g>
  <defs
     id="defs14">
    <clipPath
       id="clip0_42_2309">
      <rect
         width="274.724"
         height="54.575001"
         fill="#ffffff"
         transform="translate(0,0.594238)"
         id="rect14"
         x="0"
         y="0" />
    </clipPath>
  </defs>
</svg>
