<?xml version="1.0" encoding="UTF-8" standalone="no"?>
<!-- Created with Inkscape (http://www.inkscape.org/) -->

<svg
   width="30.423115mm"
   height="7.1522694mm"
   viewBox="0 0 30.423115 7.1522694"
   version="1.1"
   id="svg1"
   xml:space="preserve"
   inkscape:version="1.4 (1:1.4+202410161351+e7c3feb100)"
   sodipodi:docname="citeck_full_logo.svg"
   xmlns:inkscape="http://www.inkscape.org/namespaces/inkscape"
   xmlns:sodipodi="http://sodipodi.sourceforge.net/DTD/sodipodi-0.dtd"
   xmlns="http://www.w3.org/2000/svg"
   xmlns:svg="http://www.w3.org/2000/svg"><sodipodi:namedview
     id="namedview1"
     pagecolor="#ffffff"
     bordercolor="#000000"
     borderopacity="0.25"
     inkscape:showpageshadow="2"
     inkscape:pageopacity="0.0"
     inkscape:pagecheckerboard="0"
     inkscape:deskcolor="#d1d1d1"
     inkscape:document-units="mm"
     showgrid="false"
     inkscape:zoom="2.1417558"
     inkscape:cx="18.676265"
     inkscape:cy="42.488504"
     inkscape:window-width="1920"
     inkscape:window-height="982"
     inkscape:window-x="0"
     inkscape:window-y="20"
     inkscape:window-maximized="1"
     inkscape:current-layer="layer1" /><defs
     id="defs1"><clipPath
       id="clip0_42_2309"><rect
         width="274.724"
         height="54.575001"
         fill="#ffffff"
         transform="translate(0,0.594238)"
         id="rect14"
         x="0"
         y="0" /></clipPath></defs><g
     inkscape:label="Layer 1"
     inkscape:groupmode="layer"
     id="layer1"
     transform="translate(-0.0785466,-0.06844949)"><g
       style="fill:none"
       id="g1"
       transform="matrix(0.26458333,0,0,0.26458333,17.852625,113.37938)"><g
         clip-path="url(#clip0_42_2309)"
         id="g14"
         transform="translate(-226.91662,-442.62749)"><path
           fill-rule="evenodd"
           clip-rule="evenodd"
           d="m 186.627,25.9002 h -2.817 c -0.611,0 -1.197,-0.2428 -1.629,-0.6748 l -6.727,-6.7266 c -1.297,-1.2976 -3.401,-1.2976 -4.699,0 l -7.094,7.0945 c -1.298,1.2976 -1.298,3.4015 0,4.6992 l 7.094,7.0944 c 1.298,1.2976 3.402,1.2976 4.699,0 l 6.727,-6.7265 c 0.432,-0.4321 1.018,-0.6748 1.629,-0.6748 h 2.798 c -1.01,6.4655 -6.604,11.4123 -13.353,11.4123 -7.465,0 -13.516,-6.0514 -13.516,-13.5161 0,-7.4647 6.051,-13.5161 13.516,-13.5161 6.792,0 12.413,5.0092 13.372,11.5345 z"
           fill="#4b75b7"
           id="path13" /><rect
           x="173.22701"
           y="23.3713"
           width="6.1795402"
           height="6.1795402"
           rx="0.77244198"
           transform="rotate(45,173.227,23.3713)"
           fill="#4b75b7"
           id="rect13" /><path
           d="m 202.869,35.4089 c -2.039,0 -3.736,-0.6768 -5.089,-2.0303 -1.336,-1.3716 -2.003,-3.0409 -2.003,-5.0081 0,-1.9671 0.667,-3.6274 2.003,-4.981 1.353,-1.3716 3.05,-2.0573 5.089,-2.0573 1.751,0 3.24,0.4872 4.467,1.4618 1.245,0.9745 2.048,2.2288 2.409,3.7628 h -3.14 c -0.271,-0.758 -0.74,-1.3626 -1.408,-1.8137 -0.649,-0.4693 -1.425,-0.7039 -2.328,-0.7039 -1.191,0 -2.165,0.4061 -2.923,1.2182 -0.758,0.8121 -1.137,1.8498 -1.137,3.1131 0,1.2633 0.379,2.301 1.137,3.1131 0.758,0.8122 1.732,1.2182 2.923,1.2182 0.903,0 1.679,-0.2256 2.328,-0.6767 0.668,-0.4693 1.137,-1.0829 1.408,-1.8408 h 3.14 c -0.361,1.534 -1.164,2.7882 -2.409,3.7628 -1.227,0.9745 -2.716,1.4618 -4.467,1.4618 z m 11.18,-16.7567 c -0.541,0 -1.011,-0.1895 -1.408,-0.5685 -0.397,-0.3971 -0.595,-0.8753 -0.595,-1.4348 0,-0.5414 0.198,-1.0016 0.595,-1.3806 0.397,-0.397 0.867,-0.5955 1.408,-0.5955 0.559,0 1.029,0.1985 1.408,0.5955 0.379,0.379 0.568,0.8392 0.568,1.3806 0,0.5595 -0.189,1.0377 -0.568,1.4348 -0.379,0.379 -0.849,0.5685 -1.408,0.5685 z m -1.489,16.486 V 21.6029 h 2.978 v 13.5353 z m 12.854,0.1353 c -1.372,0 -2.491,-0.379 -3.357,-1.1369 -0.848,-0.7761 -1.272,-1.895 -1.272,-3.3568 v -6.524 h -2.816 v -2.6529 h 2.816 V 17.84 h 2.977 v 3.7629 h 3.871 v 2.6529 h -3.871 v 6.0367 c 0,0.8302 0.181,1.4258 0.542,1.7867 0.361,0.3429 0.938,0.5143 1.732,0.5143 0.65,0 1.182,-0.0902 1.597,-0.2707 v 2.653 c -0.649,0.1985 -1.389,0.2977 -2.219,0.2977 z m 10.841,0.1354 c -2.021,0 -3.682,-0.6587 -4.981,-1.9762 -1.299,-1.3355 -1.949,-3.0229 -1.949,-5.0622 0,-2.0393 0.641,-3.7177 1.922,-5.0351 1.281,-1.3355 2.96,-2.0032 5.035,-2.0032 2.093,0 3.781,0.7309 5.062,2.1927 1.282,1.4437 1.85,3.3026 1.706,5.5765 h -10.774 c 0.036,1.0468 0.433,1.922 1.191,2.6259 0.758,0.7038 1.723,1.0557 2.896,1.0557 1.661,0 2.798,-0.6316 3.411,-1.8949 h 3.113 c -0.415,1.3174 -1.209,2.4003 -2.382,3.2485 -1.173,0.8482 -2.59,1.2723 -4.25,1.2723 z m -0.054,-11.5862 c -0.975,0 -1.814,0.2797 -2.518,0.8391 -0.686,0.5415 -1.128,1.3175 -1.326,2.3281 h 7.498 c -0.216,-1.0467 -0.658,-1.8318 -1.326,-2.3551 -0.668,-0.5414 -1.444,-0.8121 -2.328,-0.8121 z m 16.025,11.5862 c -2.04,0 -3.736,-0.6768 -5.09,-2.0303 -1.335,-1.3716 -2.003,-3.0409 -2.003,-5.0081 0,-1.9671 0.668,-3.6274 2.003,-4.981 1.354,-1.3716 3.05,-2.0573 5.09,-2.0573 1.75,0 3.239,0.4872 4.466,1.4618 1.245,0.9745 2.049,2.2288 2.41,3.7628 h -3.141 c -0.27,-0.758 -0.74,-1.3626 -1.407,-1.8137 -0.65,-0.4693 -1.426,-0.7039 -2.328,-0.7039 -1.192,0 -2.166,0.4061 -2.924,1.2182 -0.758,0.8121 -1.137,1.8498 -1.137,3.1131 0,1.2633 0.379,2.301 1.137,3.1131 0.758,0.8122 1.732,1.2182 2.924,1.2182 0.902,0 1.678,-0.2256 2.328,-0.6767 0.667,-0.4693 1.137,-1.0829 1.407,-1.8408 h 3.141 c -0.361,1.534 -1.165,2.7882 -2.41,3.7628 -1.227,0.9745 -2.716,1.4618 -4.466,1.4618 z m 19.138,-0.2707 -6.47,-6.524 v 6.524 h -2.978 v -20.303 h 2.978 v 11.9111 l 5.171,-5.1434 h 3.763 l -6.037,6.0367 7.39,7.4986 z"
           fill="#4b75b7"
           id="path14" /></g></g></g></svg>
