<svg width="160" height="160" viewBox="0 0 160 160" fill="none" xmlns="http://www.w3.org/2000/svg">
<path fill-rule="evenodd" clip-rule="evenodd" d="M160 68.2695H143.237C139.601 68.2695 136.114 66.8324 133.542 64.2754L93.5156 24.4624C85.7943 16.7818 73.2741 16.7818 65.5528 24.4624L23.3367 66.453C15.6144 74.1341 15.6144 86.5863 23.3367 94.2664L65.5528 136.258C73.2741 143.938 85.7943 143.938 93.5156 136.258L133.542 96.445C136.114 93.887 139.601 92.4509 143.237 92.4509H159.887C153.875 130.72 120.59 159.999 80.4289 159.999C36.0092 159.999 0 124.182 0 79.9996C0 35.8169 36.0092 0 80.4289 0C120.842 0 154.294 29.6478 160 68.2695Z" fill="#7396CD"/>
<path d="M103.016 76.3409L83.5145 56.8396C81.7195 55.0446 78.8091 55.0445 77.0141 56.8396L57.5127 76.3409C55.7177 78.1359 55.7177 81.0463 57.5128 82.8414L77.0141 102.343C78.8091 104.138 81.7195 104.138 83.5145 102.343L103.016 82.8413C104.811 81.0463 104.811 78.136 103.016 76.3409Z" fill="#7396CD"/>
</svg>
