<?xml version="1.0" encoding="UTF-8" standalone="no"?>
<svg
   viewBox="0 0 135 135.00001"
   version="1.1"
   id="svg2"
   width="135"
   height="135"
   xmlns="http://www.w3.org/2000/svg">
  <path
     d="m 133.60529,73.393184 -27.69131,47.962796 c -2.18261,3.77991 -6.217175,6.10918 -10.582399,6.10918 H 39.948966 c -4.365224,0 -8.398457,-2.32927 -10.582402,-6.10918 L 1.6765893,73.393184 c -2.1826121,-3.779905 -2.1826121,-8.438456 0,-12.219695 L 29.366564,13.212022 C 31.550509,9.4307829 35.583742,7.1015078 39.948966,7.1015078 h 55.382615 c 4.365224,0 8.399789,2.3292751 10.582399,6.1105142 l 27.69131,47.961467 c 2.18261,3.781239 2.18261,8.439789 0,12.219695"
     fill="#42d3a5"
     id="path1" />
  <path
     d="m 61.53276,27.048009 c -1.414665,0.03067 -2.661934,0.929697 -3.140522,2.261644 L 40.556684,79.00541 34.70133,69.245854 C 34.085346,68.21658 32.971674,67.585696 31.771704,67.585696 H 0.05149659 c 0.04970976,2.00835 0.5878153,4.007 1.62695931,5.806455 l 0.5937352,1.027274 H 29.837502 l 8.570086,14.282643 c 0.621314,1.035974 1.737056,1.660158 2.927626,1.660158 0.111998,0 0.221975,-0.0056 0.333972,-0.01758 1.314667,-0.127997 2.436739,-1.003375 2.884728,-2.246044 l 17.257569,-48.094798 18.952526,46.41084 c 0.485318,1.18667 1.59566,2.00195 2.872928,2.111247 1.269268,0.113328 2.507437,-0.504407 3.18742,-1.59376 l 15.149623,-24.280393 8.84358,11.563711 c 0.64798,0.845309 1.65346,1.341767 2.71473,1.341767 h 18.82353 l 1.24997,-2.165946 c 0.84246,-1.458964 1.35666,-3.048024 1.54876,-4.667884 h -19.9335 L 104.40532,54.578741 c -0.68132,-0.889308 -1.76756,-1.391165 -2.87693,-1.337867 -1.11997,0.05333 -2.142947,0.651504 -2.736232,1.60346 L 84.563514,77.646764 64.767009,29.168976 C 64.231022,27.861009 62.940054,27.01003 61.53079,27.046029 Z"
     fill="#ffffff"
     id="path2" />
</svg>
