<?xml version="1.0" encoding="UTF-8" standalone="no"?>
<svg
   viewBox="0 0 45 45"
   version="1.1"
   id="svg14"
   width="45"
   height="45"
   xmlns="http://www.w3.org/2000/svg">
  <path
     fill="#4d4d4d"
     d="m 6.121357,12.316677 5.716,-9.8659997 23.019,-0.003 5.685,9.9639997 0.007,19.932 -5.691,9.958 -23.012,0.008 -5.782,-9.965 z"
     id="path1" />
  <path
     fill="#ededed"
     d="m 6.064357,32.341677 h 10.374 l -5.698,-10.041 4.634,-9.982 -9.252,-0.002 -5.79600002,10.065"
     id="path2" />
  <path
     fill="#e0e0e0"
     d="m 19.584357,32.341677 h 7.583 l 6.705,-9.773 -6.588,-10.156 h -8.92 l -5.373,9.814 z"
     id="path3" />
  <path
     fill="#acacac"
     d="m 0.32635698,22.380677 5.73800002,9.964 h 10.375 l -5.636,-9.93 z"
     id="path4" />
  <path
     fill="#9e9e9e"
     d="m 13.100357,22.382677 6.485,9.962 h 7.582 l 6.6,-9.958 z"
     id="path5" />
  <path
     fill="#00b8e3"
     d="m 15.668357,22.387677 -1.957,0.57 -1.878,-0.571 7.667,-13.2899997 1.918,3.3179997"
     id="path6" />
  <path
     fill="#33c6e9"
     d="m 21.410357,32.341677 -1.908,3.332 -5.093,-5.487 -2.58,-7.797 v -0.004 h 3.838"
     id="path7" />
  <path
     fill="#008aaa"
     d="m 11.834357,22.386677 h -0.004 v 0.003 l -1.917,3.322 -1.925,-3.307 1.952,-3.386 5.728,-9.9199997 h 3.834"
     id="path8" />
  <path
     fill="#d4d4d4"
     d="m 32.930357,32.341677 h 11.612 l -0.007,-19.93 h -11.605 z"
     id="path9" />
  <path
     fill="#919191"
     d="m 32.930357,22.413677 v 9.93 h 11.591 v -9.93 z"
     id="path10" />
  <path
     fill="#00b8e3"
     d="m 19.504357,35.677677 h -3.837 l -5.754,-9.967 1.917,-3.32 z"
     id="path11" />
  <path
     fill="#008aaa"
     d="m 34.845357,22.386677 -7.669,13.288 c -0.705,-1.036 -1.913,-3.33 -1.913,-3.33 l 5.753,-9.96 z"
     id="path12" />
  <path
     fill="#00b8e3"
     d="m 31.006357,35.674677 -3.83,-0.001 7.67,-13.288 1.916,-3.318 1.922,3.34 m -3.839,-0.021 h -3.828 l -5.755,-9.973 1.905,-3.3139997 4.658,5.9219997 z"
     id="path13" />
  <path
     fill="#33c6e9"
     d="m 36.762357,19.065677 v 0.003 l -1.917,3.318 -7.677,-13.2859997 3.841,0.002 z"
     id="path14" />
</svg>
